<?xml version="1.0"?><svg width="640" height="480" xmlns="http://www.w3.org/2000/svg">
 <title>grey wine bottle</title>
 <metadata id="metadata7">image/svg+xml</metadata>
 <g>
  <title>Layer 1</title>
  <g id="layer1">
   <g id="layer1-7">
    <g id="g2386">
     <rect fill="#7f7f7f" fill-rule="evenodd" y="-1920.627655" x="1379.687133" height="560" width="80" id="rect2382" transform="matrix(0.49192568091773986,0,0,0.47281592667469324,-470.35540672601337,1107.99340632855) "/>
     <rect fill="#7f7f7f" fill-rule="evenodd" id="rect2384" width="45.714287" height="234.28572" x="1333.972833" y="-2297.770511" transform="matrix(0.49192568091773986,0,0,0.47281592667469324,-470.35540672601337,1107.99340632855) "/>
     <path fill="#7f7f7f" id="path2398" d="m166.164001,1.97297c-1.024002,0.74859 -1.585007,2.57613 -1.813004,5.89542c-0.115005,1.6656 -0.470001,3.329309 -0.783997,3.69391c-0.348999,0.4039 -0.667999,3.3205 -0.815002,7.4764c-0.203995,5.764299 -0.106003,7.0811 0.598999,8.5107c0.372009,0.7514 0.572998,1.6917 0.600006,6.220501l-3.355011,89.2411c0.240005,3.450996 -0.610001,6.304001 -2.395996,9.265991c-1.442001,2.24501 -3.787003,4.96701 -8.360992,10.034012c-18.284012,18.534988 -27.186005,42.302994 -28.839005,67.390991l0.075996,250.488007c0.874001,6.496002 4.315002,16.626984 9.73101,18.809998l113.14299,0c5.417007,-2.183014 8.858002,-12.313995 9.731003,-18.809998l0.076996,-250.488007c-1.653,-25.087997 -10.556,-48.856003 -28.838989,-67.390991c-5.339005,-5.91301 -7.641006,-8.634003 -9.014999,-11.128006c-1.53801,-2.339996 -1.617004,-4.845001 -1.71701,-7.501999l-3.37999,-89.911201c0.025986,-4.528698 0.227997,-5.468998 0.598999,-6.220398c0.705994,-1.4296 0.804001,-2.7465 0.599991,-8.5107c-0.147003,-4.1559 -0.466003,-7.0725 -0.815002,-7.4764c-0.313995,-0.3646 -0.668991,-2.028319 -0.783997,-3.69391c-0.227997,-3.3193 -0.789001,-5.14684 -1.813995,-5.89543c-14.093002,-1.04375 -28.335999,-1.14118 -42.429001,0l0,0l0,0.00001zm35.434006,28.894731l2.459991,0l0,85.107298l-2.459991,0l0,-85.107298zm27.548996,183.453299l0,246.33699l-2.951996,0l0,-246.33699l2.951996,0zm10.330002,0l0,246.33699l-6.395004,0l0,-246.33699l6.395004,0z"/>
    </g>
   </g>
  </g>
 </g>
</svg>